<svg xmlns="http://www.w3.org/2000/svg" x="0px" y="0px"
width="64" height="64"
viewBox="0 0 172 172"
style=" fill:#000000;"><defs><linearGradient x1="17.81812" y1="19.135" x2="153.22244" y2="154.53663" gradientUnits="userSpaceOnUse" id="color-1_DVVOIMg5YNI1_gr1"><stop offset="0" stop-color="#7de3c3"></stop><stop offset="0.437" stop-color="#0ba360"></stop><stop offset="1" stop-color="#2df19b"></stop></linearGradient></defs><g fill="none" fill-rule="nonzero" stroke="none" stroke-width="1" stroke-linecap="butt" stroke-linejoin="miter" stroke-miterlimit="10" stroke-dasharray="" stroke-dashoffset="0" font-family="none" font-weight="none" font-size="none" text-anchor="none" style="mix-blend-mode: normal"><path d="M0,172v-172h172v172z" fill="none"></path><g fill="url(#color-1_DVVOIMg5YNI1_gr1)"><path d="M8.0625,155.875c-1.48427,0 -2.6875,1.20323 -2.6875,2.6875c0,1.48427 1.20323,2.6875 2.6875,2.6875h2.6875v2.6875c0,1.48427 1.20323,2.6875 2.6875,2.6875c1.48427,0 2.6875,-1.20323 2.6875,-2.6875v-2.6875h7.75075c0.10248,0.0273 0.20661,0.04795 0.31175,0.06181h18.8125v2.62569c0,1.48427 1.20323,2.6875 2.6875,2.6875c1.48427,0 2.6875,-1.20323 2.6875,-2.6875v-2.6875h26.875v2.6875c0,1.48427 1.20323,2.6875 2.6875,2.6875c1.48427,0 2.6875,-1.20323 2.6875,-2.6875v-2.6875h2.44025c0.08151,0.02114 0.16403,0.03819 0.24725,0.05106h18.8125c0.08322,-0.01288 0.16574,-0.02992 0.24725,-0.05106h5.12775v2.6875c0,1.48427 1.20323,2.6875 2.6875,2.6875c1.48427,0 2.6875,-1.20323 2.6875,-2.6875v-2.6445h18.8125c0.07256,0 0.13438,-0.03763 0.20694,-0.043h7.85556v2.6875c0,1.48427 1.20323,2.6875 2.6875,2.6875c1.48427,0 2.6875,-1.20323 2.6875,-2.6875v-2.6445h16.125c0.07256,0 0.13438,-0.03763 0.20694,-0.043h2.48056c1.48427,0.01187 2.69713,-1.18173 2.709,-2.666c0.01187,-1.48427 -1.18173,-2.69713 -2.666,-2.709v-142.4375c0,-1.50801 -1.22249,-2.7305 -2.7305,-2.7305h-18.8125c-1.50801,0 -2.7305,1.22249 -2.7305,2.7305v142.4375h-5.289v-118.25c0,-1.50801 -1.22249,-2.7305 -2.7305,-2.7305h-18.8125c-1.50801,0 -2.7305,1.22249 -2.7305,2.7305v118.25h-5.28094v-72.5625c-0.00148,-1.51185 -1.22671,-2.73708 -2.73856,-2.73856h-18.8125c-1.51247,0 -2.73856,1.2261 -2.73856,2.73856v72.5625h-5.32394v-91.375c0,-1.48427 -1.20323,-2.6875 -2.6875,-2.6875h-18.8125c-1.48427,0 -2.6875,1.20323 -2.6875,2.6875v91.375h-5.31319v-56.4375c0,-1.5184 -1.23091,-2.74931 -2.74931,-2.74931h-18.8125c-1.5184,0 -2.74931,1.23091 -2.74931,2.74931v56.4375h-5.31319v-147.8125c0,-1.48427 -1.20323,-2.6875 -2.6875,-2.6875c-1.48427,0 -2.6875,1.20323 -2.6875,2.6875v34.9375h-2.6875c-1.48427,0 -2.6875,1.20323 -2.6875,2.6875c0,1.48427 1.20323,2.6875 2.6875,2.6875h2.6875v34.9375h-2.6875c-1.48427,0 -2.6875,1.20323 -2.6875,2.6875c0,1.48427 1.20323,2.6875 2.6875,2.6875h2.6875v34.9375h-2.6875c-1.48427,0 -2.6875,1.20323 -2.6875,2.6875c0,1.48427 1.20323,2.6875 2.6875,2.6875h2.6875v26.875zM86.05106,86.05106h13.33537v69.77288h-13.33537zM145.17606,16.17606h13.3515v139.65594h-13.35956zM115.61356,40.36356h13.3515v115.46844h-13.35956zM56.4375,67.1875h13.4375v88.6875h-13.4375zM26.93681,102.18681h13.31388v53.62638h-13.31387z"></path></g></g></svg>