<svg xmlns="http://www.w3.org/2000/svg" x="0px" y="0px"
width="60" height="60"
viewBox="0 0 172 172"
style=" fill:#000000;"><g fill="none" fill-rule="nonzero" stroke="none" stroke-width="1" stroke-linecap="butt" stroke-linejoin="miter" stroke-miterlimit="10" stroke-dasharray="" stroke-dashoffset="0" font-family="none" font-weight="none" font-size="none" text-anchor="none" style="mix-blend-mode: normal"><path d="M0,172v-172h172v172z" fill="none"></path><g fill="#227345"><path d="M87.78607,0.03919c-11.70371,-0.48655 -23.09935,3.82266 -31.55274,11.93153c-8.45339,8.10887 -13.23276,19.31546 -13.23333,31.02928c0.02686,23.73711 19.26289,42.97314 43,43c23.38115,-0.02652 42.45624,-18.73061 42.94194,-42.10672c0.4857,-23.37612 -17.79601,-42.85639 -41.15588,-43.85408zM86,5.73333c20.58181,0 37.26667,16.68485 37.26667,37.26667c0,20.58181 -16.68485,37.26667 -37.26667,37.26667c-20.58181,0 -37.26667,-16.68485 -37.26667,-37.26667c0.0237,-20.57199 16.69468,-37.24297 37.26667,-37.26667zM85.96641,14.33333c-11.06939,0.01853 -20.03309,8.99726 -20.03307,20.06667c0,1.58322 1.28345,2.86667 2.86667,2.86667c1.58322,0 2.86667,-1.28345 2.86667,-2.86667c0,-7.91608 6.41725,-14.33333 14.33333,-14.33333c7.91608,0 14.33333,6.41725 14.33333,14.33333c0,7.91608 -6.41725,14.33333 -14.33333,14.33333c-1.58322,0 -2.86667,1.28345 -2.86667,2.86667v2.86667c0,1.58322 1.28345,2.86667 2.86667,2.86667c1.58322,0 2.86667,-1.28345 2.86667,-2.86667v-0.20156c10.43729,-1.49021 17.94138,-10.80339 17.17764,-21.31883c-0.76374,-10.51544 -9.53482,-18.64654 -20.0779,-18.61294zM86,63.06667c-1.58322,0 -2.86667,1.28345 -2.86667,2.86667v2.86667c0,1.58322 1.28345,2.86667 2.86667,2.86667c1.58322,0 2.86667,-1.28345 2.86667,-2.86667v-2.86667c0,-1.58322 -1.28345,-2.86667 -2.86667,-2.86667zM27.48529,68.8056c-1.85578,-0.02794 -3.65149,0.65748 -5.01667,1.91484l-20.32982,19.02526c-1.3617,1.24324 -2.13749,3.00202 -2.13749,4.8459c0,1.84387 0.77579,3.60266 2.13749,4.8459l20.33542,19.05325c2.11834,1.9442 5.18769,2.4477 7.81614,1.28216c2.48257,-1.02889 4.10342,-3.44913 4.10964,-6.13646v-4.60794c20.98811,1.53239 37.24118,18.99419 37.26667,40.03815v14.33333c0,4.74965 3.85035,8.6 8.6,8.6h11.46667c4.74965,0 8.6,-3.85035 8.6,-8.6v-14.33333c0.02549,-21.04396 16.27856,-38.50576 37.26667,-40.03815v4.60794c0.00527,2.68597 1.62366,5.10583 4.10404,6.13646c2.63497,1.16451 5.70976,0.65424 7.82734,-1.29896l20.32422,-19.02526c1.3617,-1.24324 2.13749,-3.00202 2.13749,-4.8459c0,-1.84387 -0.77579,-3.60266 -2.13749,-4.8459l-20.35781,-19.05326c-2.11936,-1.9421 -5.18739,-2.44538 -7.81615,-1.28216c-2.47245,1.03959 -4.08087,3.45994 -4.08164,6.14206v4.75911c-20.3309,0.85626 -39.23727,10.67749 -51.628,26.81901c-12.3376,-16.17535 -31.24469,-26.00761 -51.572,-26.81901v-4.75911c-0.00455,-2.68754 -1.62281,-5.1094 -4.10404,-6.14206c-0.88628,-0.39117 -1.84203,-0.6006 -2.81068,-0.61589zM27.33411,74.53333c0.23174,-0.00561 0.46165,0.04229 0.67188,0.13997c0.38417,0.1313 0.64861,0.48463 0.66628,0.89023v7.56979c0,1.58322 1.28345,2.86667 2.86667,2.86667c20.19381,-0.02029 39.16458,9.6745 50.97852,26.05195c-3.8718,6.02718 -6.77376,12.62462 -8.6,19.55156c-7.08649,-17.1659 -23.81302,-28.37511 -42.38411,-28.40352c-1.58322,0 -2.86667,1.28345 -2.86667,2.86667v7.56979c-0.01753,0.40438 -0.28245,0.75614 -0.66628,0.88464c-0.53733,0.25002 -1.17151,0.16005 -1.6181,-0.22956l-20.34102,-19.04206c-0.19768,-0.16002 -0.31253,-0.40075 -0.31253,-0.65508c0,-0.25433 0.11485,-0.49506 0.31253,-0.65508h0.0112l20.31862,-19.02526c0.266,-0.23661 0.60713,-0.37148 0.96302,-0.38073zM144.66029,74.53893c0.35459,-0.00343 0.69708,0.12877 0.95742,0.36953l20.33542,19.03646c0.19975,0.15995 0.31601,0.40198 0.31601,0.65788c0,0.2559 -0.11626,0.49793 -0.31601,0.65788l-20.32422,19.01966c-0.44756,0.40045 -1.0909,0.49519 -1.63489,0.24076c-0.38162,-0.13037 -0.64401,-0.48171 -0.66068,-0.88464v-7.56979c0,-1.58322 -1.28345,-2.86667 -2.86667,-2.86667c-25.31836,0.03159 -45.83508,20.5483 -45.86667,45.86667v14.33333c0,1.58322 -1.28345,2.86667 -2.86667,2.86667h-11.46667c-1.58322,0 -2.86667,-1.28345 -2.86667,-2.86667v-14.33333c0.04107,-34.81373 28.25293,-63.0256 63.06667,-63.06667c1.58322,0 2.86667,-1.28345 2.86667,-2.86667v-7.56979c0.01766,-0.40561 0.2821,-0.75893 0.66628,-0.89023c0.2092,-0.08794 0.43374,-0.13361 0.66068,-0.13438z"></path></g></g></svg>