<svg xmlns="http://www.w3.org/2000/svg" x="0px" y="0px"
width="50" height="50"
viewBox="0 0 172 172"
style=" fill:#000000;"><g fill="none" fill-rule="nonzero" stroke="none" stroke-width="1" stroke-linecap="butt" stroke-linejoin="miter" stroke-miterlimit="10" stroke-dasharray="" stroke-dashoffset="0" font-family="none" font-weight="none" font-size="none" text-anchor="none" style="mix-blend-mode: normal"><path d="M0,172v-172h172v172z" fill="none"></path><g fill="#227345"><path d="M39.56,6.88c-6.62469,0 -12.04,5.33469 -12.04,11.9325v132.225c0,7.78031 6.38281,14.0825 14.19,14.0825h88.58c7.80719,0 14.19,-6.30219 14.19,-14.0825v-101.1575c0,-0.91375 -0.3225,-1.8275 -0.9675,-2.4725l-39.56,-39.56c-0.645,-0.645 -1.55875,-0.9675 -2.4725,-0.9675zM103.2,16.8775l31.2825,31.2825h-25.585c-3.15781,0 -5.6975,-2.53969 -5.6975,-5.6975zM58.48,82.56h55.04v48.16h-55.04zM65.36,89.44v6.88h17.2v-6.88zM89.44,89.44v6.88h17.2v-6.88zM65.36,103.2v6.88h17.2v-6.88zM89.44,103.2v6.88h17.2v-6.88zM65.36,116.96v6.88h17.2v-6.88zM89.44,116.96v6.88h17.2v-6.88z"></path></g></g></svg>